# xmcd
#
# Track frame offsets: 
#        150
#        12629
#        29243
#        45195
#        49240
#        51564
#        91056
#        117839
#        122279
#        142204
#        162173
#        176200
#        228211
#        253344
#        273217
#        287137
#        301995
#        344842
#
# Disc length: 4641 seconds
#
# Revision: 0
# Processed by: cddbd v1.5.2PL0 Copyright (c) Steve Scherf et al.
# Submitted via: ExactAudioCopy v0.95b3
#
DISCID=0f121f12
DTITLE=Woodstock - Woodstock  40 Years on  Back to Yasgur's Farm - Dis
DTITLE=c 2
DYEAR=1900
DGENRE=
TTITLE0=Joan Baez - Joe Hill
TTITLE1=Joan Baez - Sweet Sir Galahad
TTITLE2=Joan Baez - Hickory Wind
TTITLE3=John Morris - Bring Scully His Asthma Pills
TTITLE4=John Morris - Insulin and Quill Intro
TTITLE5=Quill - They Live The Life
TTITLE6=Quill - That's How I Eat
TTITLE7=Chip Monck - I Understand Your Wife Is Having A Baby
TTITLE8=Country Joe McDonald - Donovan's Reef
TTITLE9=Country Joe McDonald - The 'Fish' Cheer - I-Feel-Like-I'm-Fixi
TTITLE9=n'-To-Die Rag
TTITLE10=Santana - Persuasion
TTITLE11=Santana - Soul Sacrifice
TTITLE12=John B. Sebastian - How Have You Been
TTITLE13=John B. Sebastian - Rainbows All Over Your Blues
TTITLE14=John B. Sebastian - I Had A Dream
TTITLE15=Incredible String Band - The Letter
TTITLE16=Incredible String Band - When You Find Out Who You Are
TTITLE17=Chip Monck - She Is Lost
EXTD=
EXTT0=
EXTT1=
EXTT2=
EXTT3=
EXTT4=
EXTT5=
EXTT6=
EXTT7=
EXTT8=
EXTT9=
EXTT10=
EXTT11=
EXTT12=
EXTT13=
EXTT14=
EXTT15=
EXTT16=
EXTT17=
PLAYORDER=
